<svg xmlns="http://www.w3.org/2000/svg" width="1040" height="1352" viewBox="0 0 1040 1352" font-family="Arial, Helvetica, sans-serif"><rect width="100%" height="100%" fill="#fff"/><text x="20" y="26" font-size="18" font-weight="700" fill="#111">Project detail</text><text x="20" y="44" font-size="11" fill="#555">Route #/projects/:projectId   ·   js/views/projects.js</text><text x="20" y="62" font-size="10" font-weight="700" fill="#666">DESKTOP AND TABLET (768px and wider)</text><text x="780" y="62" font-size="10" font-weight="700" fill="#666">PHONE (320px)</text><rect x="20" y="70" width="720" height="708" rx="0" fill="#fff" stroke="#222" stroke-width="2"/><rect x="20" y="70" width="118" height="708" rx="0" fill="#3b3b3b" stroke="#222" stroke-width="2"/><text x="32" y="94" font-size="10.5" font-weight="700" fill="#fff" text-anchor="start">SE Research Hub</text><text x="36" y="123" font-size="10" font-weight="400" fill="#fff" text-anchor="start">Dashboard</text><rect x="26" y="134" width="106" height="22" rx="3" fill="#666" stroke="none" stroke-width="1"/><text x="36" y="149" font-size="10" font-weight="700" fill="#fff" text-anchor="start">Projects</text><text x="36" y="175" font-size="10" font-weight="400" fill="#fff" text-anchor="start">Discover</text><text x="36" y="201" font-size="10" font-weight="400" fill="#fff" text-anchor="start">Library</text><text x="36" y="227" font-size="10" font-weight="400" fill="#fff" text-anchor="start">Evidence</text><text x="36" y="253" font-size="10" font-weight="400" fill="#fff" text-anchor="start">Matrix</text><text x="36" y="279" font-size="10" font-weight="400" fill="#fff" text-anchor="start">Progress</text><text x="32" y="764" font-size="9.5" font-weight="400" fill="#ccc" text-anchor="start">Backup &amp; export</text><line x1="26" y1="750" x2="132" y2="750" stroke="#666" stroke-width="1"/><rect x="628" y="80" width="98" height="22" rx="4" fill="#fff" stroke="#555" stroke-width="1"/><text x="677" y="95" font-size="9.5" font-weight="700" fill="#222" text-anchor="middle">Dark theme</text><text x="154" y="124" font-size="9.5" font-weight="400" fill="#555" text-anchor="start">Projects / AI-assisted coding</text><circle cx="143" cy="122" r="8" fill="#c0392b"/><text x="143" y="126" font-size="10" font-weight="700" fill="#fff" text-anchor="middle">1</text><text x="154" y="156" font-size="17" font-weight="700" fill="#222" text-anchor="start">AI-assisted coding</text><text x="154" y="184" font-size="10" font-weight="400" fill="#555" text-anchor="start">Created 4 Oct 2026 · 3 research questions · 2 saved papers</text><text x="154" y="212" font-size="13" font-weight="700" fill="#222" text-anchor="start">Research questions</text><rect x="154" y="229" width="333.6" height="116" rx="4" fill="#fff" stroke="#555" stroke-width="1"/><rect x="164" y="239" width="30.799999999999997" height="16" rx="8" fill="#fff" stroke="#333" stroke-width="1.5"/><text x="179.4" y="250" font-size="9" font-weight="700" fill="#222" text-anchor="middle">RQ1</text><text x="164" y="275" font-size="10" font-weight="700" fill="#222" text-anchor="start">Does AI code generation improve developer productivity?</text><text x="164" y="299" font-size="10.5" font-weight="400" fill="#222" text-anchor="start" text-decoration="underline">2 evidence records</text><circle cx="153" cy="296" r="8" fill="#c0392b"/><text x="153" y="300" font-size="10" font-weight="700" fill="#fff" text-anchor="middle">2</text><rect x="164" y="313" width="43.6" height="22" rx="4" fill="#fff" stroke="#333" stroke-width="1.5"/><text x="185.8" y="328" font-size="10" font-weight="700" fill="#222" text-anchor="middle">Edit</text><rect x="213.6" y="313" width="55.400000000000006" height="22" rx="4" fill="#fff" stroke="#a11d33" stroke-width="1.5"/><text x="241.3" y="328" font-size="10" font-weight="700" fill="#a11d33" text-anchor="middle">Delete</text><rect x="154" y="353" width="333.6" height="113" rx="4" fill="#fff" stroke="#555" stroke-width="1"/><rect x="164" y="363" width="30.799999999999997" height="16" rx="8" fill="#fff" stroke="#333" stroke-width="1.5"/><text x="179.4" y="374" font-size="9" font-weight="700" fill="#222" text-anchor="middle">RQ2</text><text x="164" y="399" font-size="10" font-weight="700" fill="#222" text-anchor="start">What risks does AI-generated code introduce?</text><text x="164" y="421" font-size="9" font-weight="400" fill="#777" text-anchor="start" font-style="italic">No evidence recorded yet</text><rect x="164" y="434" width="43.6" height="22" rx="4" fill="#fff" stroke="#333" stroke-width="1.5"/><text x="185.8" y="449" font-size="10" font-weight="700" fill="#222" text-anchor="middle">Edit</text><rect x="213.6" y="434" width="55.400000000000006" height="22" rx="4" fill="#fff" stroke="#a11d33" stroke-width="1.5"/><text x="241.3" y="449" font-size="10" font-weight="700" fill="#a11d33" text-anchor="middle">Delete</text><rect x="154" y="474" width="333.6" height="150" rx="4" fill="#fff" stroke="#555" stroke-width="1"/><text x="164" y="496" font-size="12" font-weight="700" fill="#222" text-anchor="start">Add a research question</text><text x="164" y="516" font-size="10" font-weight="700" fill="#222" text-anchor="start">Research question (required)</text><text x="164" y="529" font-size="9" font-weight="400" fill="#777" text-anchor="start">Ask one answerable question (10 to 300 characters).</text><rect x="164" y="535" width="313.6" height="36" rx="3" fill="#fff" stroke="#555" stroke-width="1"/><text x="477.6" y="582" font-size="8.5" font-weight="400" fill="#777" text-anchor="end">0 / 300</text><rect x="164" y="592" width="90.80000000000001" height="22" rx="4" fill="#333" stroke="#333" stroke-width="1.5"/><text x="209.4" y="607" font-size="10" font-weight="700" fill="#fff" text-anchor="middle">Add question</text><circle cx="143" cy="482" r="8" fill="#c0392b"/><text x="143" y="486" font-size="10" font-weight="700" fill="#fff" text-anchor="middle">3</text><text x="154" y="645" font-size="13" font-weight="700" fill="#222" text-anchor="start">Saved papers</text><rect x="154" y="662" width="333.6" height="96" rx="4" fill="#fff" stroke="#555" stroke-width="1"/><text x="164" y="683" font-size="11" font-weight="700" fill="#222" text-anchor="start" text-decoration="underline">Productivity Assessment of Neural Code Completion</text><text x="164" y="699" font-size="10" font-weight="700" fill="#222" text-anchor="start">Albert Ziegler et al. · 2022</text><text x="164" y="713" font-size="9" font-weight="400" fill="#666" text-anchor="start">Read · Reviewed</text><line x1="164" y1="720" x2="477.6" y2="720" stroke="#ccc" stroke-width="1"/><rect x="164" y="726" width="53.400000000000006" height="20" rx="4" fill="#fff" stroke="#333" stroke-width="1.5"/><text x="190.7" y="740" font-size="9" font-weight="700" fill="#222" text-anchor="middle">Review</text><rect x="222.4" y="726" width="53.400000000000006" height="20" rx="4" fill="#fff" stroke="#333" stroke-width="1.5"/><text x="249.10000000000002" y="740" font-size="9" font-weight="700" fill="#222" text-anchor="middle">Remove</text><rect x="501.6" y="199" width="222.4" height="194" rx="4" fill="#fff" stroke="#555" stroke-width="1"/><text x="511.6" y="221" font-size="12" font-weight="700" fill="#222" text-anchor="start">Project details</text><text x="511.6" y="241" font-size="10" font-weight="700" fill="#222" text-anchor="start">Project name (required)</text><rect x="511.6" y="246" width="202.4" height="22" rx="3" fill="#fff" stroke="#555" stroke-width="1"/><text x="517.6" y="261" font-size="10" font-weight="400" fill="#555" text-anchor="start">AI-assisted coding</text><text x="714" y="279" font-size="8.5" font-weight="400" fill="#777" text-anchor="end">18 / 80</text><text x="511.6" y="299" font-size="10" font-weight="700" fill="#222" text-anchor="start">Description (optional)</text><rect x="511.6" y="304" width="202.4" height="36" rx="3" fill="#fff" stroke="#555" stroke-width="1"/><text x="714" y="351" font-size="8.5" font-weight="400" fill="#777" text-anchor="end">0 / 500</text><rect x="511.6" y="361" width="90.80000000000001" height="22" rx="4" fill="#333" stroke="#333" stroke-width="1.5"/><text x="557" y="376" font-size="10" font-weight="700" fill="#fff" text-anchor="middle">Save details</text><rect x="501.6" y="401" width="222.4" height="113" rx="4" fill="#fff" stroke="#a11d33" stroke-width="1.5" stroke-dasharray="5 3"/><text x="511.6" y="423" font-size="12" font-weight="700" fill="#222" text-anchor="start">Delete project</text><text x="511.6" y="443" font-size="9.5" font-weight="400" fill="#222" text-anchor="start">Permanently removes this project, its</text><text x="511.6" y="456" font-size="9.5" font-weight="400" fill="#222" text-anchor="start">research questions and any evidence</text><text x="511.6" y="469" font-size="9.5" font-weight="400" fill="#222" text-anchor="start">recorded against them.</text><rect x="511.6" y="482" width="102.60000000000001" height="22" rx="4" fill="#fff" stroke="#a11d33" stroke-width="1.5"/><text x="562.9" y="497" font-size="10" font-weight="700" fill="#a11d33" text-anchor="middle">Delete project</text><circle cx="490.6" cy="409" r="8" fill="#c0392b"/><text x="490.6" y="413" font-size="10" font-weight="700" fill="#fff" text-anchor="middle">4</text><rect x="780" y="70" width="240" height="1125" rx="10" fill="#fff" stroke="#222" stroke-width="2"/><rect x="780" y="70" width="240" height="34" rx="10" fill="#3b3b3b" stroke="#222" stroke-width="2"/><text x="792" y="92" font-size="10" font-weight="700" fill="#fff" text-anchor="start">SE Research Hub</text><rect x="942" y="77" width="68" height="20" rx="4" fill="#3b3b3b" stroke="#ddd" stroke-width="1"/><text x="976" y="91" font-size="8" font-weight="700" fill="#fff" text-anchor="middle">Dark theme</text><rect x="780" y="1157" width="240" height="38" rx="10" fill="#3b3b3b" stroke="#222" stroke-width="2"/><text x="810" y="1180" font-size="8.5" font-weight="400" fill="#fff" text-anchor="middle">Dashboard</text><text x="870" y="1180" font-size="8.5" font-weight="400" fill="#fff" text-anchor="middle">Discover</text><text x="930" y="1180" font-size="8.5" font-weight="400" fill="#fff" text-anchor="middle">Library</text><text x="990" y="1180" font-size="8.5" font-weight="400" fill="#fff" text-anchor="middle">Menu</text><text x="792" y="126" font-size="9.5" font-weight="400" fill="#555" text-anchor="start">Projects / AI-assisted coding</text><circle cx="781" cy="124" r="8" fill="#c0392b"/><text x="781" y="128" font-size="10" font-weight="700" fill="#fff" text-anchor="middle">1</text><text x="792" y="158" font-size="17" font-weight="700" fill="#222" text-anchor="start">AI-assisted coding</text><text x="792" y="186" font-size="10" font-weight="400" fill="#555" text-anchor="start">Created 4 Oct 2026 · 3 research</text><text x="792" y="199" font-size="10" font-weight="400" fill="#555" text-anchor="start">questions · 2 saved papers</text><text x="792" y="227" font-size="13" font-weight="700" fill="#222" text-anchor="start">Research questions</text><rect x="792" y="244" width="216" height="129" rx="4" fill="#fff" stroke="#555" stroke-width="1"/><rect x="802" y="254" width="30.799999999999997" height="16" rx="8" fill="#fff" stroke="#333" stroke-width="1.5"/><text x="817.4" y="265" font-size="9" font-weight="700" fill="#222" text-anchor="middle">RQ1</text><text x="802" y="290" font-size="10" font-weight="700" fill="#222" text-anchor="start">Does AI code generation improve</text><text x="802" y="303" font-size="10" font-weight="700" fill="#222" text-anchor="start">developer productivity?</text><text x="802" y="327" font-size="10.5" font-weight="400" fill="#222" text-anchor="start" text-decoration="underline">2 evidence records</text><circle cx="791" cy="324" r="8" fill="#c0392b"/><text x="791" y="328" font-size="10" font-weight="700" fill="#fff" text-anchor="middle">2</text><rect x="802" y="341" width="43.6" height="22" rx="4" fill="#fff" stroke="#333" stroke-width="1.5"/><text x="823.8" y="356" font-size="10" font-weight="700" fill="#222" text-anchor="middle">Edit</text><rect x="851.6" y="341" width="55.400000000000006" height="22" rx="4" fill="#fff" stroke="#a11d33" stroke-width="1.5"/><text x="879.3000000000001" y="356" font-size="10" font-weight="700" fill="#a11d33" text-anchor="middle">Delete</text><rect x="792" y="381" width="216" height="126" rx="4" fill="#fff" stroke="#555" stroke-width="1"/><rect x="802" y="391" width="30.799999999999997" height="16" rx="8" fill="#fff" stroke="#333" stroke-width="1.5"/><text x="817.4" y="402" font-size="9" font-weight="700" fill="#222" text-anchor="middle">RQ2</text><text x="802" y="427" font-size="10" font-weight="700" fill="#222" text-anchor="start">What risks does AI-generated code</text><text x="802" y="440" font-size="10" font-weight="700" fill="#222" text-anchor="start">introduce?</text><text x="802" y="462" font-size="9" font-weight="400" fill="#777" text-anchor="start" font-style="italic">No evidence recorded yet</text><rect x="802" y="475" width="43.6" height="22" rx="4" fill="#fff" stroke="#333" stroke-width="1.5"/><text x="823.8" y="490" font-size="10" font-weight="700" fill="#222" text-anchor="middle">Edit</text><rect x="851.6" y="475" width="55.400000000000006" height="22" rx="4" fill="#fff" stroke="#a11d33" stroke-width="1.5"/><text x="879.3000000000001" y="490" font-size="10" font-weight="700" fill="#a11d33" text-anchor="middle">Delete</text><rect x="792" y="515" width="216" height="161" rx="4" fill="#fff" stroke="#555" stroke-width="1"/><text x="802" y="537" font-size="12" font-weight="700" fill="#222" text-anchor="start">Add a research question</text><text x="802" y="557" font-size="10" font-weight="700" fill="#222" text-anchor="start">Research question (required)</text><text x="802" y="570" font-size="9" font-weight="400" fill="#777" text-anchor="start">Ask one answerable question (10 to 300</text><text x="802" y="581" font-size="9" font-weight="400" fill="#777" text-anchor="start">characters).</text><rect x="802" y="587" width="196" height="36" rx="3" fill="#fff" stroke="#555" stroke-width="1"/><text x="998" y="634" font-size="8.5" font-weight="400" fill="#777" text-anchor="end">0 / 300</text><rect x="802" y="644" width="90.80000000000001" height="22" rx="4" fill="#333" stroke="#333" stroke-width="1.5"/><text x="847.4" y="659" font-size="10" font-weight="700" fill="#fff" text-anchor="middle">Add question</text><circle cx="781" cy="523" r="8" fill="#c0392b"/><text x="781" y="527" font-size="10" font-weight="700" fill="#fff" text-anchor="middle">3</text><text x="792" y="697" font-size="13" font-weight="700" fill="#222" text-anchor="start">Saved papers</text><rect x="792" y="714" width="216" height="110" rx="4" fill="#fff" stroke="#555" stroke-width="1"/><text x="802" y="735" font-size="11" font-weight="700" fill="#222" text-anchor="start" text-decoration="underline">Productivity Assessment of</text><text x="802" y="749" font-size="11" font-weight="700" fill="#222" text-anchor="start" text-decoration="underline">Neural Code Completion</text><text x="802" y="765" font-size="10" font-weight="700" fill="#222" text-anchor="start">Albert Ziegler et al. · 2022</text><text x="802" y="779" font-size="9" font-weight="400" fill="#666" text-anchor="start">Read · Reviewed</text><line x1="802" y1="786" x2="998" y2="786" stroke="#ccc" stroke-width="1"/><rect x="802" y="792" width="53.400000000000006" height="20" rx="4" fill="#fff" stroke="#333" stroke-width="1.5"/><text x="828.7" y="806" font-size="9" font-weight="700" fill="#222" text-anchor="middle">Review</text><rect x="860.4" y="792" width="53.400000000000006" height="20" rx="4" fill="#fff" stroke="#333" stroke-width="1.5"/><text x="887.1" y="806" font-size="9" font-weight="700" fill="#222" text-anchor="middle">Remove</text><rect x="792" y="832" width="216" height="194" rx="4" fill="#fff" stroke="#555" stroke-width="1"/><text x="802" y="854" font-size="12" font-weight="700" fill="#222" text-anchor="start">Project details</text><text x="802" y="874" font-size="10" font-weight="700" fill="#222" text-anchor="start">Project name (required)</text><rect x="802" y="879" width="196" height="22" rx="3" fill="#fff" stroke="#555" stroke-width="1"/><text x="808" y="894" font-size="10" font-weight="400" fill="#555" text-anchor="start">AI-assisted coding</text><text x="998" y="912" font-size="8.5" font-weight="400" fill="#777" text-anchor="end">18 / 80</text><text x="802" y="932" font-size="10" font-weight="700" fill="#222" text-anchor="start">Description (optional)</text><rect x="802" y="937" width="196" height="36" rx="3" fill="#fff" stroke="#555" stroke-width="1"/><text x="998" y="984" font-size="8.5" font-weight="400" fill="#777" text-anchor="end">0 / 500</text><rect x="802" y="994" width="90.80000000000001" height="22" rx="4" fill="#333" stroke="#333" stroke-width="1.5"/><text x="847.4" y="1009" font-size="10" font-weight="700" fill="#fff" text-anchor="middle">Save details</text><rect x="792" y="1034" width="216" height="113" rx="4" fill="#fff" stroke="#a11d33" stroke-width="1.5" stroke-dasharray="5 3"/><text x="802" y="1056" font-size="12" font-weight="700" fill="#222" text-anchor="start">Delete project</text><text x="802" y="1076" font-size="9.5" font-weight="400" fill="#222" text-anchor="start">Permanently removes this project, its</text><text x="802" y="1089" font-size="9.5" font-weight="400" fill="#222" text-anchor="start">research questions and any evidence</text><text x="802" y="1102" font-size="9.5" font-weight="400" fill="#222" text-anchor="start">recorded against them.</text><rect x="802" y="1115" width="102.60000000000001" height="22" rx="4" fill="#fff" stroke="#a11d33" stroke-width="1.5"/><text x="853.3" y="1130" font-size="10" font-weight="700" fill="#a11d33" text-anchor="middle">Delete project</text><circle cx="781" cy="1042" r="8" fill="#c0392b"/><text x="781" y="1046" font-size="10" font-weight="700" fill="#fff" text-anchor="middle">4</text><text x="20" y="1225" font-size="12" font-weight="700" fill="#222" text-anchor="start">Annotations</text><circle cx="28" cy="1244" r="8" fill="#c0392b"/><text x="28" y="1248" font-size="10" font-weight="700" fill="#fff" text-anchor="middle">1</text><text x="42" y="1247" font-size="10" font-weight="400" fill="#222" text-anchor="start">Breadcrumb navigation (a labelled &lt;nav&gt; with an ordered list); the current page is</text><text x="42" y="1260" font-size="10" font-weight="400" fill="#222" text-anchor="start">marked aria-current.</text><circle cx="538" cy="1244" r="8" fill="#c0392b"/><text x="538" y="1248" font-size="10" font-weight="700" fill="#fff" text-anchor="middle">2</text><text x="552" y="1247" font-size="10" font-weight="400" fill="#222" text-anchor="start">Each question shows how much evidence it has, linking to the Evidence page filtered to</text><text x="552" y="1260" font-size="10" font-weight="400" fill="#222" text-anchor="start">that question.</text><circle cx="28" cy="1288" r="8" fill="#c0392b"/><text x="28" y="1292" font-size="10" font-weight="700" fill="#fff" text-anchor="middle">3</text><text x="42" y="1291" font-size="10" font-weight="400" fill="#222" text-anchor="start">Editing a question happens in place: the card turns into a form, focus moves into it,</text><text x="42" y="1304" font-size="10" font-weight="400" fill="#222" text-anchor="start">and returns to the Edit button when saved or cancelled. Adding focuses the field again</text><text x="42" y="1317" font-size="10" font-weight="400" fill="#222" text-anchor="start">for the next entry.</text><circle cx="538" cy="1288" r="8" fill="#c0392b"/><text x="538" y="1292" font-size="10" font-weight="700" fill="#fff" text-anchor="middle">4</text><text x="552" y="1291" font-size="10" font-weight="400" fill="#222" text-anchor="start">Destructive actions are visually separated and always ask first. The confirmation</text><text x="552" y="1304" font-size="10" font-weight="400" fill="#222" text-anchor="start">dialog focuses Cancel, not the destructive button, and Esc cancels. Deleting cascades</text><text x="552" y="1317" font-size="10" font-weight="400" fill="#222" text-anchor="start">to questions, saved-paper links and evidence.</text></svg>